<mxfile host="Electron" modified="2023-11-24T09:32:51.667Z" agent="Mozilla/5.0 (Windows NT 10.0; Win64; x64) AppleWebKit/537.36 (KHTML, like Gecko) draw.io/21.7.5 Chrome/114.0.5735.289 Electron/25.8.1 Safari/537.36" etag="nFwY0w1b0EZ3a-7Mt08b" version="21.7.5" type="device">
  <diagram name="第1頁" id="Ou68Qw6T9XRmb-ZBqHsg">
    <mxGraphModel dx="1418" dy="820" grid="1" gridSize="10" guides="1" tooltips="1" connect="1" arrows="1" fold="1" page="1" pageScale="1" pageWidth="3300" pageHeight="4681" math="0" shadow="0">
      <root>
        <mxCell id="0" />
        <mxCell id="1" parent="0" />
        <mxCell id="7vl69ocZc3wbAYlISnQI-1" value="" style="ellipse;whiteSpace=wrap;html=1;aspect=fixed;opacity=60;" vertex="1" parent="1">
          <mxGeometry x="200" y="70" width="520" height="520" as="geometry" />
        </mxCell>
        <mxCell id="7vl69ocZc3wbAYlISnQI-2" value="" style="ellipse;whiteSpace=wrap;html=1;aspect=fixed;opacity=50;" vertex="1" parent="1">
          <mxGeometry x="580" y="130" width="400" height="400" as="geometry" />
        </mxCell>
        <mxCell id="7vl69ocZc3wbAYlISnQI-4" value="物件A" style="text;html=1;strokeColor=none;fillColor=none;align=center;verticalAlign=middle;whiteSpace=wrap;rounded=0;" vertex="1" parent="1">
          <mxGeometry x="430" y="110" width="60" height="30" as="geometry" />
        </mxCell>
        <mxCell id="7vl69ocZc3wbAYlISnQI-5" value="物件B" style="text;html=1;strokeColor=none;fillColor=none;align=center;verticalAlign=middle;whiteSpace=wrap;rounded=0;" vertex="1" parent="1">
          <mxGeometry x="750" y="160" width="60" height="30" as="geometry" />
        </mxCell>
        <mxCell id="7vl69ocZc3wbAYlISnQI-6" value="行為" style="rounded=0;whiteSpace=wrap;html=1;" vertex="1" parent="1">
          <mxGeometry x="600" y="270" width="50" height="30" as="geometry" />
        </mxCell>
        <mxCell id="7vl69ocZc3wbAYlISnQI-7" value="行為" style="rounded=0;whiteSpace=wrap;html=1;" vertex="1" parent="1">
          <mxGeometry x="660" y="270" width="50" height="30" as="geometry" />
        </mxCell>
        <mxCell id="7vl69ocZc3wbAYlISnQI-8" value="行為" style="rounded=0;whiteSpace=wrap;html=1;" vertex="1" parent="1">
          <mxGeometry x="660" y="340" width="50" height="30" as="geometry" />
        </mxCell>
        <mxCell id="7vl69ocZc3wbAYlISnQI-9" value="行為" style="rounded=0;whiteSpace=wrap;html=1;" vertex="1" parent="1">
          <mxGeometry x="600" y="340" width="50" height="30" as="geometry" />
        </mxCell>
        <mxCell id="7vl69ocZc3wbAYlISnQI-10" value="行為" style="rounded=0;whiteSpace=wrap;html=1;" vertex="1" parent="1">
          <mxGeometry x="260" y="315" width="50" height="30" as="geometry" />
        </mxCell>
        <mxCell id="7vl69ocZc3wbAYlISnQI-11" value="行為" style="rounded=0;whiteSpace=wrap;html=1;" vertex="1" parent="1">
          <mxGeometry x="300" y="220" width="50" height="30" as="geometry" />
        </mxCell>
        <mxCell id="7vl69ocZc3wbAYlISnQI-12" value="行為" style="rounded=0;whiteSpace=wrap;html=1;" vertex="1" parent="1">
          <mxGeometry x="320" y="410" width="50" height="30" as="geometry" />
        </mxCell>
        <mxCell id="7vl69ocZc3wbAYlISnQI-13" value="行為" style="rounded=0;whiteSpace=wrap;html=1;" vertex="1" parent="1">
          <mxGeometry x="800" y="230" width="50" height="30" as="geometry" />
        </mxCell>
        <mxCell id="7vl69ocZc3wbAYlISnQI-14" value="行為" style="rounded=0;whiteSpace=wrap;html=1;" vertex="1" parent="1">
          <mxGeometry x="880" y="315" width="50" height="30" as="geometry" />
        </mxCell>
        <mxCell id="7vl69ocZc3wbAYlISnQI-15" value="行為" style="rounded=0;whiteSpace=wrap;html=1;" vertex="1" parent="1">
          <mxGeometry x="790" y="410" width="50" height="30" as="geometry" />
        </mxCell>
      </root>
    </mxGraphModel>
  </diagram>
</mxfile>
